<?xml version="1.0" standalone="no"?>
<!DOCTYPE svg PUBLIC "-//W3C//DTD SVG 20010904//EN"
 "http://www.w3.org/TR/2001/REC-SVG-20010904/DTD/svg10.dtd">
<svg version="1.0" xmlns="http://www.w3.org/2000/svg"
 width="700.000000pt" height="700.000000pt" viewBox="0 0 700.000000 700.000000"
 preserveAspectRatio="xMidYMid meet">
<metadata>
Created by potrace 1.11, written by Peter Selinger 2001-2013
</metadata>
<g transform="translate(0.000000,700.000000) scale(0.100000,-0.100000)"
fill="#000000" stroke="none">
<path d="M0 3500 l0 -3500 3500 0 3500 0 0 3500 0 3500 -3500 0 -3500 0 0
-3500z m2200 -90 l0 -1140 -355 0 -355 0 0 1140 0 1140 355 0 355 0 0 -1140z
m1372 670 l3 -470 577 470 578 470 450 -2 450 -3 -643 -511 c-353 -280 -642
-515 -642 -522 0 -6 290 -273 645 -593 355 -319 658 -594 675 -610 l30 -29
-465 0 -465 1 -592 529 c-326 292 -595 530 -598 530 -3 0 -5 -238 -5 -530 l0
-530 -360 0 -360 0 0 1135 0 1135 360 0 360 0 2 -470z"/>
</g>
</svg>
